<?xml version="1.0" encoding="UTF-8"?>
<svg xmlns="http://www.w3.org/2000/svg" xmlns:xlink="http://www.w3.org/1999/xlink" width="24px" height="24px" viewBox="0 0 24 24" version="1.1">
<g id="surface1">
<path style=" stroke:none;fill-rule:nonzero;fill:rgb(93.333333%,93.333333%,93.333333%);fill-opacity:1;" d="M 12 0 C 17.726562 0 22.65625 4.042969 23.777344 9.660156 C 24.894531 15.277344 21.890625 20.902344 16.597656 23.09375 C 11.308594 25.285156 5.203125 23.433594 2.023438 18.671875 C -1.160156 13.910156 -0.535156 7.566406 3.515625 3.515625 C 5.761719 1.261719 8.816406 -0.00390625 12 0 Z M 12.414062 9.5 C 12.355469 9.496094 12.296875 9.476562 12.242188 9.449219 C 12.1875 9.421875 12.140625 9.382812 12.105469 9.332031 L 12.101562 9.332031 C 12.070312 9.289062 12.042969 9.238281 12.023438 9.1875 L 12.023438 9.183594 C 12.007812 9.132812 12.003906 9.078125 12.007812 9.019531 L 12.007812 8.984375 C 12.015625 8.925781 12.03125 8.871094 12.0625 8.820312 C 12.089844 8.773438 12.128906 8.726562 12.171875 8.691406 C 12.214844 8.65625 12.265625 8.628906 12.320312 8.609375 C 12.375 8.59375 12.429688 8.585938 12.484375 8.589844 L 12.515625 8.589844 C 12.695312 8.609375 12.871094 8.644531 13.046875 8.6875 C 13.214844 8.730469 13.375 8.785156 13.53125 8.851562 C 13.839844 8.984375 14.117188 9.171875 14.351562 9.40625 C 14.46875 9.523438 14.574219 9.648438 14.664062 9.785156 C 14.761719 9.925781 14.84375 10.070312 14.910156 10.222656 C 14.980469 10.378906 15.035156 10.539062 15.074219 10.703125 C 15.117188 10.882812 15.148438 11.058594 15.167969 11.238281 C 15.179688 11.363281 15.144531 11.484375 15.066406 11.578125 C 15.03125 11.625 14.984375 11.660156 14.929688 11.6875 C 14.878906 11.71875 14.820312 11.738281 14.757812 11.742188 C 14.703125 11.75 14.644531 11.742188 14.589844 11.726562 C 14.53125 11.707031 14.476562 11.679688 14.429688 11.640625 C 14.386719 11.605469 14.347656 11.558594 14.316406 11.507812 C 14.285156 11.453125 14.265625 11.390625 14.257812 11.328125 C 14.246094 11.195312 14.222656 11.066406 14.191406 10.9375 C 14.164062 10.820312 14.125 10.703125 14.074219 10.59375 C 13.988281 10.386719 13.863281 10.199219 13.707031 10.042969 C 13.628906 9.96875 13.542969 9.898438 13.453125 9.835938 C 13.359375 9.777344 13.261719 9.722656 13.15625 9.675781 C 13.046875 9.628906 12.929688 9.589844 12.8125 9.5625 C 12.683594 9.527344 12.554688 9.503906 12.421875 9.492188 Z M 12.902344 7.394531 L 12.875 7.394531 C 12.820312 7.390625 12.765625 7.371094 12.71875 7.34375 C 12.667969 7.320312 12.625 7.285156 12.585938 7.242188 C 12.550781 7.199219 12.519531 7.144531 12.5 7.089844 C 12.480469 7.035156 12.472656 6.976562 12.476562 6.914062 L 12.476562 6.878906 C 12.480469 6.824219 12.496094 6.773438 12.523438 6.722656 C 12.546875 6.671875 12.582031 6.628906 12.621094 6.589844 C 12.664062 6.554688 12.714844 6.523438 12.769531 6.503906 C 12.828125 6.484375 12.890625 6.476562 12.949219 6.480469 C 13.261719 6.5 13.570312 6.539062 13.875 6.605469 C 14.160156 6.664062 14.4375 6.75 14.707031 6.855469 C 14.960938 6.960938 15.207031 7.09375 15.433594 7.246094 C 15.882812 7.542969 16.257812 7.933594 16.539062 8.386719 C 16.683594 8.621094 16.804688 8.867188 16.898438 9.125 C 16.996094 9.398438 17.074219 9.679688 17.125 9.964844 C 17.175781 10.273438 17.207031 10.585938 17.21875 10.894531 L 17.21875 10.914062 C 17.21875 10.972656 17.207031 11.03125 17.1875 11.085938 L 17.1875 11.082031 C 17.117188 11.253906 16.957031 11.363281 16.773438 11.371094 L 16.753906 11.371094 C 16.695312 11.371094 16.640625 11.359375 16.585938 11.335938 C 16.472656 11.296875 16.382812 11.210938 16.335938 11.097656 C 16.308594 11.042969 16.296875 10.984375 16.296875 10.921875 C 16.289062 10.660156 16.261719 10.402344 16.21875 10.144531 C 16.179688 9.910156 16.117188 9.679688 16.039062 9.457031 C 15.964844 9.253906 15.875 9.058594 15.761719 8.871094 C 15.65625 8.695312 15.53125 8.535156 15.386719 8.386719 C 15.246094 8.238281 15.085938 8.109375 14.917969 7.996094 C 14.734375 7.878906 14.542969 7.777344 14.34375 7.699219 C 14.128906 7.613281 13.902344 7.546875 13.675781 7.503906 C 13.421875 7.453125 13.167969 7.417969 12.910156 7.402344 Z M 8.996094 11.734375 C 9.359375 12.40625 9.804688 13.027344 10.320312 13.585938 C 10.925781 14.21875 11.632812 14.742188 12.414062 15.132812 C 12.472656 15.15625 12.539062 15.15625 12.59375 15.132812 C 12.691406 15.085938 12.777344 15.023438 12.847656 14.945312 C 12.933594 14.863281 13.011719 14.769531 13.085938 14.675781 C 13.421875 14.234375 13.835938 13.683594 14.425781 13.957031 L 14.460938 13.976562 L 16.414062 15.105469 L 16.4375 15.117188 C 16.679688 15.292969 16.820312 15.582031 16.804688 15.878906 C 16.792969 16.226562 16.691406 16.5625 16.515625 16.855469 C 16.300781 17.230469 15.96875 17.523438 15.570312 17.691406 C 15.199219 17.851562 14.804688 17.957031 14.398438 18.007812 C 13.804688 18.097656 13.195312 18.046875 12.625 17.859375 C 11.996094 17.644531 11.402344 17.355469 10.851562 16.992188 L 10.800781 16.960938 C 10.511719 16.78125 10.199219 16.585938 9.890625 16.359375 C 8.664062 15.429688 7.636719 14.265625 6.871094 12.929688 C 6.242188 11.796875 5.890625 10.570312 6.085938 9.40625 C 6.164062 8.78125 6.46875 8.207031 6.941406 7.796875 C 7.429688 7.425781 8.042969 7.261719 8.648438 7.339844 C 8.734375 7.347656 8.804688 7.394531 8.847656 7.46875 L 10.101562 9.59375 C 10.273438 9.789062 10.316406 10.070312 10.210938 10.308594 C 10.097656 10.527344 9.933594 10.710938 9.730469 10.84375 C 9.660156 10.902344 9.578125 10.960938 9.496094 11.023438 C 9.210938 11.21875 8.894531 11.460938 9.003906 11.742188 Z M 19.113281 4.882812 C 15.714844 1.496094 10.398438 0.980469 6.414062 3.648438 C 2.425781 6.320312 0.882812 11.433594 2.722656 15.867188 C 4.5625 20.296875 9.277344 22.808594 13.984375 21.871094 C 18.6875 20.929688 22.074219 16.796875 22.070312 12 C 22.074219 9.328125 21.007812 6.765625 19.113281 4.882812 Z M 19.113281 4.882812 "/>
</g>
</svg>
