<?xml version="1.0" encoding="UTF-8"?>
<svg xmlns="http://www.w3.org/2000/svg" xmlns:xlink="http://www.w3.org/1999/xlink" width="24px" height="24px" viewBox="0 0 24 24" version="1.1">
<g id="surface1">
<path style=" stroke:none;fill-rule:evenodd;fill:rgb(93.333333%,93.333333%,93.333333%);fill-opacity:1;" d="M 12.203125 8.320312 L 19.203125 8.320312 L 19.203125 9.390625 L 12.203125 9.390625 Z M 1.46875 4.664062 L 2.222656 4.664062 L 2.222656 20.828125 C 2.222656 21.59375 2.847656 22.222656 3.613281 22.222656 L 8.128906 22.222656 C 8.894531 22.222656 9.519531 21.59375 9.519531 20.828125 L 9.519531 4.664062 L 10.664062 4.664062 L 10.664062 0 L 19.910156 0 L 20.222656 0.132812 L 22.296875 2.175781 L 22.429688 2.304688 L 22.429688 4.664062 L 22.53125 4.664062 C 23.136719 4.664062 23.632812 5.160156 23.632812 5.765625 L 23.632812 22.898438 C 23.632812 23.5 23.136719 24 22.53125 24 L 1.46875 24 C 0.859375 24 0.367188 23.503906 0.367188 22.898438 L 0.367188 5.765625 C 0.367188 5.164062 0.863281 4.664062 1.46875 4.664062 Z M 11.566406 10.371094 L 21.53125 10.371094 L 21.53125 3.4375 L 19.074219 3.4375 L 19.074219 0.898438 L 11.566406 0.898438 Z M 21.382812 2.539062 L 19.972656 1.148438 L 19.972656 2.539062 Z M 12.203125 4.125 L 20.78125 4.125 L 20.78125 5.195312 L 12.203125 5.195312 Z M 12.203125 6.226562 L 16.675781 6.226562 L 16.675781 7.296875 L 12.203125 7.296875 Z M 3.21875 2.851562 L 5.941406 2.851562 L 5.941406 0.777344 L 6.78125 0.777344 L 6.78125 2.851562 L 8.46875 2.851562 L 8.46875 20.953125 L 3.21875 20.953125 Z M 13.476562 13.007812 C 14.035156 13.007812 14.488281 13.460938 14.488281 14.019531 C 14.488281 14.578125 14.035156 15.03125 13.476562 15.03125 C 12.917969 15.03125 12.460938 14.578125 12.460938 14.019531 C 12.460938 13.460938 12.914062 13.007812 13.476562 13.007812 Z M 16.546875 19.113281 C 17.105469 19.113281 17.558594 19.566406 17.558594 20.125 C 17.558594 20.683594 17.105469 21.136719 16.546875 21.136719 C 15.988281 21.136719 15.535156 20.6875 15.535156 20.125 C 15.535156 19.570312 15.988281 19.113281 16.546875 19.113281 Z M 19.621094 16.0625 C 20.179688 16.0625 20.632812 16.515625 20.632812 17.070312 C 20.632812 17.632812 20.179688 18.085938 19.621094 18.085938 C 19.0625 18.085938 18.609375 17.632812 18.609375 17.070312 C 18.609375 16.515625 19.0625 16.0625 19.621094 16.0625 Z M 16.546875 16.0625 C 17.105469 16.0625 17.558594 16.515625 17.558594 17.070312 C 17.558594 17.632812 17.105469 18.085938 16.546875 18.085938 C 15.988281 18.085938 15.535156 17.632812 15.535156 17.070312 C 15.535156 16.515625 15.988281 16.0625 16.546875 16.0625 Z M 13.476562 16.0625 C 14.035156 16.0625 14.488281 16.515625 14.488281 17.070312 C 14.488281 17.632812 14.035156 18.085938 13.476562 18.085938 C 12.917969 18.085938 12.460938 17.632812 12.460938 17.070312 C 12.460938 16.515625 12.914062 16.0625 13.476562 16.0625 Z M 19.621094 13.007812 C 20.179688 13.007812 20.632812 13.460938 20.632812 14.019531 C 20.632812 14.578125 20.179688 15.03125 19.621094 15.03125 C 19.0625 15.03125 18.609375 14.578125 18.609375 14.019531 C 18.609375 13.460938 19.0625 13.007812 19.621094 13.007812 Z M 16.546875 13.007812 C 17.105469 13.007812 17.558594 13.460938 17.558594 14.019531 C 17.558594 14.578125 17.105469 15.03125 16.546875 15.03125 C 15.988281 15.03125 15.535156 14.578125 15.535156 14.019531 C 15.535156 13.460938 15.988281 13.007812 16.546875 13.007812 Z M 16.546875 13.007812 "/>
</g>
</svg>
